<?xml version="1.0" standalone="no"?><!DOCTYPE svg PUBLIC "-//W3C//DTD SVG 1.1//EN" "http://www.w3.org/Graphics/SVG/1.1/DTD/svg11.dtd"><svg t="1573182950053" class="icon" viewBox="0 0 1024 1024" version="1.1" xmlns="http://www.w3.org/2000/svg" p-id="6695" xmlns:xlink="http://www.w3.org/1999/xlink" width="315" height="315"><defs><style type="text/css"></style></defs><path d="M750.766119 654.240202H494.766119c-21.198483 0-38.189633 17.152971-38.189634 38.189634 0 21.198483 17.152971 38.189633 38.189634 38.189633H750.766119c21.198483 0 38.189633-17.152971 38.189633-38.189633 0-21.036662-17.152971-38.027813-38.189633-38.189634zM567.423515 584.495575c0 21.198483 17.152971 38.189633 38.189633 38.189634H750.766119c21.198483 0 38.189633-17.152971 38.189633-38.189634 0-21.036662-17.152971-38.027813-38.189633-38.189633h-145.314792c-21.036662 0-38.027813 17.152971-38.027812 38.189633zM599.46397 409.082174l-81.395702-72.333754c-5.663717-5.178255-14.887484-4.045512-20.551201 2.265486L250.740834 616.212389l-15.372945 106.154236c-0.809102 5.825537 3.883692 10.356511 9.547408 9.061946l105.345133-21.845764 249.20354-280.111252c5.663717-6.149178 5.663717-15.372946 0-20.389381zM531.661188 312.960809l89.648547 79.615676c3.39823 3.074589 8.738306 2.750948 11.812895-0.647281l38.189633-42.882428c13.916561-15.534766 12.460177-39.322377-2.912769-53.238938l-45.795196-40.61694c-15.534766-13.916561-39.322377-12.460177-53.238938 3.074589l-38.189633 43.044248c-3.23641 3.23641-2.912769 8.576485 0.485461 11.651074z" p-id="6696" fill="#000000"></path></svg>