<?xml version="1.0" standalone="no"?><!DOCTYPE svg PUBLIC "-//W3C//DTD SVG 1.1//EN" "http://www.w3.org/Graphics/SVG/1.1/DTD/svg11.dtd"><svg t="1573182970214" class="icon" viewBox="0 0 1024 1024" version="1.1" xmlns="http://www.w3.org/2000/svg" p-id="7014" xmlns:xlink="http://www.w3.org/1999/xlink" width="315" height="315"><defs><style type="text/css"></style></defs><path d="M834.56 215.04H189.44c-10.24 0-25.6 10.24-25.6 20.48s10.24 20.48 25.6 20.48h46.08v558.08c0 35.84 30.72 61.44 66.56 61.44h424.96c35.84 0 66.56-30.72 66.56-61.44V256h46.08c10.24 0 25.6-10.24 25.6-20.48-5.12-10.24-15.36-20.48-30.72-20.48zM445.44 742.4c0 15.36-10.24 25.6-25.6 25.6s-25.6-10.24-25.6-20.48V373.76c0-10.24 10.24-20.48 25.6-20.48s25.6 10.24 25.6 20.48v368.64z m184.32 0c0 10.24-10.24 20.48-25.6 20.48s-25.6-10.24-25.6-20.48V373.76c0-10.24 10.24-20.48 25.6-20.48s25.6 10.24 25.6 20.48v368.64zM373.76 189.44h256c10.24 0 25.6-10.24 25.6-20.48s-10.24-20.48-25.6-20.48h-256c-10.24 0-25.6 10.24-25.6 20.48 0 15.36 10.24 20.48 25.6 20.48z" p-id="7015"></path></svg>