<?xml version="1.0" standalone="no"?><!DOCTYPE svg PUBLIC "-//W3C//DTD SVG 1.1//EN" "http://www.w3.org/Graphics/SVG/1.1/DTD/svg11.dtd"><svg t="1573441390934" class="icon" viewBox="0 0 1024 1024" version="1.1" xmlns="http://www.w3.org/2000/svg" p-id="14706" xmlns:xlink="http://www.w3.org/1999/xlink" width="315" height="315"><defs><style type="text/css"></style></defs><path d="M845.92 123.68S682.24 80 622.24 80c-136.48 0-180 70.88-311.04 70.88-48.96 0-147.2-54.56-168.96-65.44h-16L93.12 96c-11.04 0-16 10.88-11.04 21.92l218.24 812.96c0 11.04 10.88 16 21.76 11.04l32.8-11.04c10.88 0 16-10.88 10.88-21.76L169.44 167.2s98.24 54.56 147.36 54.56c108.96 0 201.76-70.88 310.88-70.88 49.12 0 174.56 32.8 174.56 32.8l60 294.56s-114.56-49.12-163.68-49.12c-109.12 0-208 70.88-310.88 70.88a134.24 134.24 0 0 1-43.68-5.44l16 70.88a134.88 134.88 0 0 0 43.68 5.44c130.88 0 163.68-70.88 294.56-70.88 60 0 245.44 70.88 245.44 70.88z" p-id="14707"></path></svg>