<svg xmlns="http://www.w3.org/2000/svg" xmlns:xlink="http://www.w3.org/1999/xlink" width="18" height="18" viewBox="0 0 18 18">
  <defs>
    <style>

      .cls-2 {
        <!-- fill: #369cc9; -->
        opacity: 0;
      }

      .cls-3 {
        clip-path: url(#clip-path);
      }
    </style>
    <clipPath id="clip-path">
      <rect id="矩形_12" data-name="矩形 12" class="cls-1" width="16.453" height="18"/>
    </clipPath>
  </defs>
  <g id="组_60" data-name="组 60" transform="translate(-62 -321)">
    <rect id="矩形_13" data-name="矩形 13" class="cls-2" width="18" height="18" transform="translate(62 321)"/>
    <g id="组_3" data-name="组 3" transform="translate(84.8 248.11)">
      <g id="组_2" data-name="组 2" transform="translate(-22 72.89)">
        <g id="组_1" data-name="组 1" class="cls-3" transform="translate(0 0)">
          <path id="路径_1" data-name="路径 1" class="cls-1" d="M-10.646,82.98A5.273,5.273,0,0,0-8.5,78.73a5.286,5.286,0,0,0-5.28-5.28,5.286,5.286,0,0,0-5.28,5.28,5.278,5.278,0,0,0,2.15,4.25A8.236,8.236,0,0,0-22,90.585a.825.825,0,0,0,.825.825.825.825,0,0,0,.825-.825,6.583,6.583,0,0,1,6.576-6.576A6.584,6.584,0,0,1-7.2,90.585a.825.825,0,0,0,.825.825.825.825,0,0,0,.825-.825,8.243,8.243,0,0,0-5.1-7.605Zm-6.761-4.25A3.635,3.635,0,0,1-13.776,75.1a3.637,3.637,0,0,1,3.631,3.631,3.637,3.637,0,0,1-3.631,3.631,3.637,3.637,0,0,1-3.631-3.631Zm0,0" transform="translate(22 -73.436)"/>
        </g>
      </g>
    </g>
  </g>
</svg>
